<mxfile host="app.diagrams.net" modified="2023-12-12T23:38:38.276Z" agent="Mozilla/5.0 (Windows NT 10.0; Win64; x64) AppleWebKit/537.36 (KHTML, like Gecko) Chrome/120.0.0.0 Safari/537.36 Edg/120.0.0.0" etag="qrcWzKAUHG5WitOyMuu0" version="22.1.8" type="github">
  <diagram name="PÃ¡gina-1" id="JqUlna2AlzxESYvFUE7s">
    <mxGraphModel dx="1426" dy="785" grid="1" gridSize="10" guides="1" tooltips="1" connect="1" arrows="1" fold="1" page="1" pageScale="1" pageWidth="827" pageHeight="1169" math="0" shadow="0">
      <root>
        <mxCell id="0" />
        <mxCell id="1" parent="0" />
        <mxCell id="KVJcDZr4lrvwrFrAcdM8-36" value="" style="rounded=0;whiteSpace=wrap;html=1;" vertex="1" parent="1">
          <mxGeometry x="10" y="540" width="810" height="430" as="geometry" />
        </mxCell>
        <mxCell id="KVJcDZr4lrvwrFrAcdM8-59" value="" style="rounded=0;whiteSpace=wrap;html=1;" vertex="1" parent="1">
          <mxGeometry x="182.5" y="550" width="135" height="190" as="geometry" />
        </mxCell>
        <mxCell id="KVJcDZr4lrvwrFrAcdM8-1" value="" style="rounded=0;whiteSpace=wrap;html=1;fillColor=#092137;" vertex="1" parent="1">
          <mxGeometry width="820" height="120" as="geometry" />
        </mxCell>
        <mxCell id="KVJcDZr4lrvwrFrAcdM8-4" value="HOME" style="rounded=1;whiteSpace=wrap;html=1;fontColor=#FFFFFF;fillColor=#092137;" vertex="1" parent="1">
          <mxGeometry x="660" y="30" width="60" height="60" as="geometry" />
        </mxCell>
        <mxCell id="KVJcDZr4lrvwrFrAcdM8-5" value="CARRITO" style="rounded=1;whiteSpace=wrap;html=1;fillColor=#092137;fontColor=#ffffff;" vertex="1" parent="1">
          <mxGeometry x="590" y="30" width="60" height="60" as="geometry" />
        </mxCell>
        <mxCell id="KVJcDZr4lrvwrFrAcdM8-6" value="" style="ellipse;whiteSpace=wrap;html=1;" vertex="1" parent="1">
          <mxGeometry x="730" y="20" width="80" height="80" as="geometry" />
        </mxCell>
        <mxCell id="KVJcDZr4lrvwrFrAcdM8-7" value="" style="shape=actor;whiteSpace=wrap;html=1;fillColor=#092137;" vertex="1" parent="1">
          <mxGeometry x="750" y="35" width="40" height="50" as="geometry" />
        </mxCell>
        <mxCell id="KVJcDZr4lrvwrFrAcdM8-8" value="LOGO" style="rounded=0;whiteSpace=wrap;html=1;fillColor=#C49541;" vertex="1" parent="1">
          <mxGeometry x="10" y="10" width="90" height="100" as="geometry" />
        </mxCell>
        <mxCell id="KVJcDZr4lrvwrFrAcdM8-9" value="" style="shape=umlDestroy;whiteSpace=wrap;html=1;strokeWidth=3;targetShapes=umlLifeline;" vertex="1" parent="1">
          <mxGeometry x="10" y="10" width="90" height="100" as="geometry" />
        </mxCell>
        <mxCell id="KVJcDZr4lrvwrFrAcdM8-12" value="" style="rounded=0;whiteSpace=wrap;html=1;" vertex="1" parent="1">
          <mxGeometry x="24" y="140" width="780" height="240" as="geometry" />
        </mxCell>
        <mxCell id="KVJcDZr4lrvwrFrAcdM8-13" value="" style="triangle;whiteSpace=wrap;html=1;" vertex="1" parent="1">
          <mxGeometry x="780" y="245" width="20" height="30" as="geometry" />
        </mxCell>
        <mxCell id="KVJcDZr4lrvwrFrAcdM8-14" value="" style="triangle;whiteSpace=wrap;html=1;rotation=-180;" vertex="1" parent="1">
          <mxGeometry x="30" y="245" width="20" height="30" as="geometry" />
        </mxCell>
        <mxCell id="KVJcDZr4lrvwrFrAcdM8-15" value="" style="shape=umlDestroy;whiteSpace=wrap;html=1;strokeWidth=3;targetShapes=umlLifeline;" vertex="1" parent="1">
          <mxGeometry x="30" y="150" width="770" height="220" as="geometry" />
        </mxCell>
        <mxCell id="KVJcDZr4lrvwrFrAcdM8-18" value="" style="rounded=0;whiteSpace=wrap;html=1;strokeColor=#c49541;fillColor=none;gradientColor=none;strokeWidth=2;" vertex="1" parent="1">
          <mxGeometry x="20" y="550" width="135" height="190" as="geometry" />
        </mxCell>
        <mxCell id="KVJcDZr4lrvwrFrAcdM8-22" value="BUSCAR" style="rounded=1;whiteSpace=wrap;html=1;fillColor=#092137;fontColor=#ffffff;" vertex="1" parent="1">
          <mxGeometry y="420" width="190" height="40" as="geometry" />
        </mxCell>
        <mxCell id="KVJcDZr4lrvwrFrAcdM8-20" value="&amp;nbsp; &amp;nbsp; &amp;nbsp; ..." style="rounded=1;whiteSpace=wrap;html=1;fillColor=#113A62;fontColor=#FCFFFF;align=left;" vertex="1" parent="1">
          <mxGeometry x="180" y="420" width="640" height="40" as="geometry" />
        </mxCell>
        <mxCell id="KVJcDZr4lrvwrFrAcdM8-23" value="GUITARRAS" style="rounded=1;whiteSpace=wrap;html=1;fillColor=#092137;fontColor=#ffffff;" vertex="1" parent="1">
          <mxGeometry x="20" y="480" width="170" height="40" as="geometry" />
        </mxCell>
        <mxCell id="KVJcDZr4lrvwrFrAcdM8-24" value="AMPLIFICADORES" style="rounded=1;whiteSpace=wrap;html=1;fillColor=#092137;fontColor=#ffffff;" vertex="1" parent="1">
          <mxGeometry x="210" y="480" width="200" height="40" as="geometry" />
        </mxCell>
        <mxCell id="KVJcDZr4lrvwrFrAcdM8-25" value="PEDALES" style="rounded=1;whiteSpace=wrap;html=1;fillColor=#092137;fontColor=#ffffff;" vertex="1" parent="1">
          <mxGeometry x="430" y="480" width="190" height="40" as="geometry" />
        </mxCell>
        <mxCell id="KVJcDZr4lrvwrFrAcdM8-26" value="ACCESORIOS" style="rounded=1;whiteSpace=wrap;html=1;fillColor=#092137;fontColor=#ffffff;" vertex="1" parent="1">
          <mxGeometry x="640" y="480" width="170" height="40" as="geometry" />
        </mxCell>
        <mxCell id="KVJcDZr4lrvwrFrAcdM8-28" value="" style="rounded=0;whiteSpace=wrap;html=1;" vertex="1" parent="1">
          <mxGeometry x="342.5" y="550" width="135" height="190" as="geometry" />
        </mxCell>
        <mxCell id="KVJcDZr4lrvwrFrAcdM8-29" value="" style="rounded=0;whiteSpace=wrap;html=1;" vertex="1" parent="1">
          <mxGeometry x="505" y="550" width="135" height="190" as="geometry" />
        </mxCell>
        <mxCell id="KVJcDZr4lrvwrFrAcdM8-30" value="" style="rounded=0;whiteSpace=wrap;html=1;" vertex="1" parent="1">
          <mxGeometry x="669" y="550" width="135" height="190" as="geometry" />
        </mxCell>
        <mxCell id="KVJcDZr4lrvwrFrAcdM8-31" value="" style="rounded=0;whiteSpace=wrap;html=1;" vertex="1" parent="1">
          <mxGeometry x="18" y="760" width="135" height="190" as="geometry" />
        </mxCell>
        <mxCell id="KVJcDZr4lrvwrFrAcdM8-32" value="" style="rounded=0;whiteSpace=wrap;html=1;" vertex="1" parent="1">
          <mxGeometry x="178" y="760" width="135" height="190" as="geometry" />
        </mxCell>
        <mxCell id="KVJcDZr4lrvwrFrAcdM8-33" value="" style="rounded=0;whiteSpace=wrap;html=1;" vertex="1" parent="1">
          <mxGeometry x="340.5" y="760" width="135" height="190" as="geometry" />
        </mxCell>
        <mxCell id="KVJcDZr4lrvwrFrAcdM8-34" value="" style="rounded=0;whiteSpace=wrap;html=1;" vertex="1" parent="1">
          <mxGeometry x="503" y="760" width="135" height="190" as="geometry" />
        </mxCell>
        <mxCell id="KVJcDZr4lrvwrFrAcdM8-35" value="" style="rounded=0;whiteSpace=wrap;html=1;" vertex="1" parent="1">
          <mxGeometry x="667" y="760" width="135" height="190" as="geometry" />
        </mxCell>
        <mxCell id="KVJcDZr4lrvwrFrAcdM8-37" value="CONTACTO&lt;br&gt;" style="rounded=1;whiteSpace=wrap;html=1;fillColor=#092137;fontColor=#ffffff;" vertex="1" parent="1">
          <mxGeometry x="520" y="30" width="60" height="60" as="geometry" />
        </mxCell>
        <mxCell id="KVJcDZr4lrvwrFrAcdM8-38" value="" style="shape=umlDestroy;whiteSpace=wrap;html=1;strokeWidth=3;targetShapes=umlLifeline;" vertex="1" parent="1">
          <mxGeometry x="20" y="550" width="130" height="130" as="geometry" />
        </mxCell>
        <mxCell id="KVJcDZr4lrvwrFrAcdM8-40" value="" style="shape=umlDestroy;whiteSpace=wrap;html=1;strokeWidth=3;targetShapes=umlLifeline;" vertex="1" parent="1">
          <mxGeometry x="185" y="550" width="130" height="190" as="geometry" />
        </mxCell>
        <mxCell id="KVJcDZr4lrvwrFrAcdM8-41" value="" style="shape=umlDestroy;whiteSpace=wrap;html=1;strokeWidth=3;targetShapes=umlLifeline;" vertex="1" parent="1">
          <mxGeometry x="345" y="550" width="130" height="190" as="geometry" />
        </mxCell>
        <mxCell id="KVJcDZr4lrvwrFrAcdM8-42" value="" style="shape=umlDestroy;whiteSpace=wrap;html=1;strokeWidth=3;targetShapes=umlLifeline;" vertex="1" parent="1">
          <mxGeometry x="510" y="550" width="130" height="190" as="geometry" />
        </mxCell>
        <mxCell id="KVJcDZr4lrvwrFrAcdM8-43" value="" style="shape=umlDestroy;whiteSpace=wrap;html=1;strokeWidth=3;targetShapes=umlLifeline;" vertex="1" parent="1">
          <mxGeometry x="18" y="760" width="130" height="190" as="geometry" />
        </mxCell>
        <mxCell id="KVJcDZr4lrvwrFrAcdM8-44" value="" style="shape=umlDestroy;whiteSpace=wrap;html=1;strokeWidth=3;targetShapes=umlLifeline;" vertex="1" parent="1">
          <mxGeometry x="183" y="760" width="130" height="190" as="geometry" />
        </mxCell>
        <mxCell id="KVJcDZr4lrvwrFrAcdM8-55" value="" style="shape=umlDestroy;whiteSpace=wrap;html=1;strokeWidth=3;targetShapes=umlLifeline;" vertex="1" parent="1">
          <mxGeometry x="503" y="760" width="130" height="190" as="geometry" />
        </mxCell>
        <mxCell id="KVJcDZr4lrvwrFrAcdM8-56" value="" style="shape=umlDestroy;whiteSpace=wrap;html=1;strokeWidth=3;targetShapes=umlLifeline;" vertex="1" parent="1">
          <mxGeometry x="343" y="760" width="130" height="190" as="geometry" />
        </mxCell>
        <mxCell id="KVJcDZr4lrvwrFrAcdM8-57" value="" style="shape=umlDestroy;whiteSpace=wrap;html=1;strokeWidth=3;targetShapes=umlLifeline;" vertex="1" parent="1">
          <mxGeometry x="671.5" y="550" width="130" height="190" as="geometry" />
        </mxCell>
        <mxCell id="KVJcDZr4lrvwrFrAcdM8-58" value="" style="shape=umlDestroy;whiteSpace=wrap;html=1;strokeWidth=3;targetShapes=umlLifeline;" vertex="1" parent="1">
          <mxGeometry x="670" y="760" width="130" height="190" as="geometry" />
        </mxCell>
        <mxCell id="KVJcDZr4lrvwrFrAcdM8-60" value="&lt;font style=&quot;font-size: 14px;&quot;&gt;&lt;b style=&quot;&quot;&gt;MARCA&lt;br&gt;&lt;div style=&quot;&quot;&gt;&lt;b style=&quot;background-color: initial;&quot;&gt;MODELO&lt;/b&gt;&lt;/div&gt;$ 30000&lt;/b&gt;&lt;/font&gt;" style="rounded=0;whiteSpace=wrap;html=1;fontSize=17;align=right;fillColor=#092137;fontColor=#FAFAFA;" vertex="1" parent="1">
          <mxGeometry x="22" y="684" width="132" height="55" as="geometry" />
        </mxCell>
        <mxCell id="KVJcDZr4lrvwrFrAcdM8-61" value="" style="rounded=0;whiteSpace=wrap;html=1;fillColor=#092137;" vertex="1" parent="1">
          <mxGeometry x="4" y="980" width="820" height="120" as="geometry" />
        </mxCell>
      </root>
    </mxGraphModel>
  </diagram>
</mxfile>
